# xmcd CD database file
#
# Track frame offsets:
#	182
#	11740
#	24445
#	34570
#	47067
#	58755
#	69850
#	81290
#	93837
#	111257
#	122120
#	135657
#	148072
#	160795
#	175677
#	190265
#	203407
#	216657
#	228820
#	241480
#	254945
#	268070
#	284165
#	295912
#	313867
#
# Disc length: 4321 seconds
#
# Revision: 2
# Processed by: cddbd v1.5.2PL0 Copyright (c) Steve Scherf et al.
# Submitted via: CDex 1.70beta2
#
DISCID=7a10df19
DTITLE=John Lee Hooker - The Boogie Chillen Man
DYEAR=1989
DGENRE=Blues
TTITLE0=Boogie Chillen
TTITLE1=Hobo Blues
TTITLE2=Dimpless
TTITLE3=I'm In The Mood
TTITLE4=I Love You Honey
TTITLE5=No Shoes
TTITLE6=Boom Boom
TTITLE7=Crawling King Snake Blues
TTITLE8=Blues Before Sunrise
TTITLE9=Maudie
TTITLE10=Love Blues
TTITLE11=Walkin' The Boogie
TTITLE12=Leave My Wife Alone
TTITLE13=Ramblin' By Myself
TTITLE14=Sugar Mama
TTITLE15=Down At The Landing
TTITLE16=Ground Hog Blues
TTITLE17=High Priced Woman
TTITLE18=I'm So Excited
TTITLE19=Time Is Marching
TTITLE20=Every Night
TTITLE21=My First Wife Left Me
TTITLE22=Little Wheel
TTITLE23=Wednesday Evening Blues
TTITLE24=Dusty Road
EXTD=YEAR: 1989
EXTT0=
EXTT1=
EXTT2=
EXTT3=
EXTT4=
EXTT5=
EXTT6=
EXTT7=
EXTT8=
EXTT9=
EXTT10=
EXTT11=
EXTT12=
EXTT13=
EXTT14=
EXTT15=
EXTT16=
EXTT17=
EXTT18=
EXTT19=
EXTT20=
EXTT21=
EXTT22=
EXTT23=
EXTT24=
PLAYORDER=
